      <svg
        width="29"
        height="28"
        viewBox="0 0 29 28"
        fill="none"
        xmlns="http://www.w3.org/2000/svg"
      >
        <g id="AlertCheckCircle">
          <path
            id="Vector"
            d="M20.0466 8.84331L12.0837 16.5316L7.74574 12.355L6.04199 14L12.0837 19.8333L21.7503 10.5L20.0466 8.84331ZM14.5003 2.33331C7.83033 2.33331 2.41699 7.55998 2.41699 14C2.41699 20.44 7.83033 25.6666 14.5003 25.6666C21.1703 25.6666 26.5837 20.44 26.5837 14C26.5837 7.55998 21.1703 2.33331 14.5003 2.33331ZM14.5003 23.3333C9.15949 23.3333 4.83366 19.1566 4.83366 14C4.83366 8.84331 9.15949 4.66665 14.5003 4.66665C19.8412 4.66665 24.167 8.84331 24.167 14C24.167 19.1566 19.8412 23.3333 14.5003 23.3333Z"
            fill="#4CAF50"
          />
        </g>
      </svg>